<svg xmlns="http://www.w3.org/2000/svg" viewBox="0 0 445 92" width="445" height="92">
	<style>
		tspan { white-space:pre }
		.shp0 { fill: #ff5f5f } 
	</style>
	<path id="Layer 1" class="shp0" d="M-9 -1L454 -1L454 94.11L-9 94.11L-9 -1Z" />
	<path id="BUY ME A COFFEE " fill="#ffffff" d="M37.3 52.33C37.3 53.98 36.41 54.63 34.53 54.63L29.78 54.63L29.78 49.93L34.53 49.93C36.41 49.93 37.3 50.73 37.3 52.33ZM36.6 40.39C36.6 41.99 35.71 42.7 33.83 42.7L29.78 42.7L29.78 38L33.83 38C35.71 38 36.6 38.75 36.6 40.39ZM47.97 53.88C47.97 50.17 45.72 46.93 41.63 45.94C44.92 45.09 47.22 42.37 47.22 38.37C47.22 32.59 42.94 29.72 36.32 29.72L19.35 29.72L19.35 63L36.79 63C44.03 63 47.97 59.71 47.97 53.88ZM51.31 48.48C51.31 58.3 57.42 63.33 65.74 63.33C74.06 63.33 80.78 58.3 80.78 48.48L80.78 29.72L70.39 29.72L70.39 48.48C70.39 51.34 69.12 53.46 65.97 53.46C62.83 53.46 61.7 51.34 61.7 48.48L61.7 29.72L51.31 29.72ZM94.88 52.89L94.88 63L105.31 63L105.31 52.89L117.25 29.72L105.5 29.72L100.19 41.52L94.88 29.72L82.94 29.72ZM127.59 63L138.03 63L138.03 46.41L143.15 63L152.08 63L157.2 46.41L157.2 63L167.59 63L167.59 29.72L154.85 29.72L147.71 49.7L140.38 29.72L127.59 29.72ZM194.47 29.72L172.29 29.72L172.29 63L194.47 63L194.47 54.68L182.72 54.68L182.72 49.98L193.06 49.98L193.06 42.13L182.72 42.13L182.72 38.04L194.47 38.04ZM229.39 63L240.39 63L228.27 29.72L216.23 29.72L204.06 63L215.01 63L216.66 57.97L227.75 57.97ZM225.21 50.12L219.19 50.12L222.2 40.86ZM249.79 46.31C249.79 56.23 256.04 63.23 266.24 63.23C275.03 63.23 281 57.97 282.36 50.12L271.36 50.12C270.38 52.33 268.4 53.6 266.05 53.6C262.53 53.6 260.37 50.73 260.37 46.31C260.37 41.9 262.53 39.03 266.05 39.03C268.4 39.03 270.38 40.3 271.36 42.51L282.36 42.51C281 34.66 275.03 29.4 266.24 29.4C256.04 29.4 249.79 36.4 249.79 46.31ZM319.4 46.22C319.4 36.21 311.83 29.16 302.34 29.16C292.89 29.16 285.18 36.21 285.18 46.22C285.18 56.23 292.89 63.33 302.34 63.33C311.74 63.33 319.4 56.23 319.4 46.22ZM295.8 46.22C295.8 41.71 298.06 38.8 302.34 38.8C306.52 38.8 308.82 41.71 308.82 46.22C308.82 50.64 306.52 53.6 302.34 53.6C298.06 53.6 295.8 50.64 295.8 46.22ZM323.16 63L333.59 63L333.59 50.45L342.99 50.45L342.99 42.6L333.59 42.6L333.59 38L346.66 38L346.66 29.72L323.16 29.72ZM350.18 63L360.62 63L360.62 50.45L370.02 50.45L370.02 42.6L360.62 42.6L360.62 38L373.68 38L373.68 29.72L350.18 29.72ZM399.39 29.72L377.21 29.72L377.21 63L399.39 63L399.39 54.68L387.64 54.68L387.64 49.98L397.98 49.98L397.98 42.13L387.64 42.13L387.64 38.04L399.39 38.04ZM425.52 29.72L403.34 29.72L403.34 63L425.52 63L425.52 54.68L413.77 54.68L413.77 49.98L424.11 49.98L424.11 42.13L413.77 42.13L413.77 38.04L425.52 38.04Z" />
</svg>